<?xml version="1.0" encoding="UTF-8"?>
<svg width="77px" height="53px" viewBox="0 0 77 53" version="1.1" xmlns="http://www.w3.org/2000/svg" xmlns:xlink="http://www.w3.org/1999/xlink">
    <!-- Generator: Sketch 57.1 (83088) - https://sketch.com -->
    <title>Artboard</title>
    <desc>Created with Sketch.</desc>
    <g id="Artboard" stroke="none" stroke-width="1" fill="none" fill-rule="evenodd">
        <path d="M7.94675096,48.7847874 C8.11549879,48.6376133 8.26549461,48.4720449 8.39674292,48.2880773 C8.52799123,48.1041097 8.59361441,47.8925501 8.59361441,47.6533922 C8.59361441,47.359044 8.48580491,47.1106914 8.27018268,46.908327 C8.05456045,46.7059626 7.79206777,46.5357951 7.48269674,46.3978194 C7.17332572,46.2598437 6.84989723,46.1540639 6.51240157,46.0804769 C6.17490591,46.0068898 5.89366374,45.9425021 5.66866663,45.8873118 C5.04992459,45.7401377 4.46869078,45.560772 3.92494777,45.3492092 C3.38120476,45.1376464 2.90778045,44.8800956 2.50466063,44.576549 C2.10154081,44.2730025 1.78279969,43.914271 1.54842771,43.5003438 C1.31405572,43.0864167 1.19687148,42.5943106 1.19687148,42.024011 C1.19687148,41.4905049 1.32811783,40.9892006 1.59061445,40.5200832 C1.85311108,40.0509658 2.20466379,39.6370448 2.64528312,39.2783079 C3.08590246,38.9195711 3.60151309,38.6344255 4.1921305,38.4228628 C4.78274791,38.2113 5.40616804,38.1055202 6.0624096,38.1055202 C6.64365213,38.1055202 7.19676172,38.1883044 7.72175497,38.3538752 C8.24674822,38.5194461 8.72017254,38.7448031 9.14204211,39.0299529 C9.56391169,39.3151027 9.92015177,39.6600368 10.210773,40.0647656 C10.5013943,40.4694944 10.6935764,40.9202083 10.7873252,41.4169209 L8.34049393,41.996416 C8.22799537,41.5548937 7.98425216,41.186964 7.60925698,40.8926158 C7.2342618,40.5982676 6.71865117,40.4510957 6.0624096,40.4510957 C5.8374125,40.4510957 5.60304403,40.4832895 5.35929716,40.5476782 C5.11555029,40.6120669 4.89055656,40.7086484 4.68430921,40.8374258 C4.47806186,40.9662031 4.30462919,41.1225732 4.164006,41.3065409 C4.02338281,41.4905085 3.95307227,41.7020681 3.95307227,41.941226 C3.95307227,42.1987807 4.03275755,42.4195385 4.1921305,42.6035061 C4.35150345,42.7874738 4.5436856,42.9392448 4.76868271,43.0588237 C4.99367981,43.1784027 5.23742302,43.2749842 5.49991965,43.3485713 C5.76241627,43.4221583 6.00615948,43.486546 6.23115659,43.5417363 C7.22489381,43.7808942 8.04987083,44.038445 8.7061124,44.3143965 C9.36235396,44.5903479 9.88733934,44.89389 10.2810843,45.2250317 C10.6748292,45.5561734 10.951384,45.919504 11.110757,46.3150344 C11.2701299,46.7105648 11.3498152,47.1566796 11.3498152,47.6533922 C11.3498152,48.2420886 11.2138815,48.7939832 10.94201,49.3090925 C10.6701385,49.8242019 10.2951489,50.2703167 9.81703006,50.6474503 C9.33891121,51.0245839 8.76705214,51.3189277 8.10143569,51.5304905 C7.43581925,51.7420533 6.71865173,51.8478331 5.94991161,51.8478331 C4.78742656,51.8478331 3.75151791,51.5672866 2.84215461,51.0061854 C1.9327913,50.4450841 1.3187459,49.6954273 1,48.7571924 L3.30620882,47.7361772 C3.60620496,48.3800639 3.99056926,48.8169804 4.45931323,49.04694 C4.9280572,49.2768995 5.46241732,49.3918775 6.0624096,49.3918775 C6.81239996,49.3918775 7.44050746,49.1895162 7.94675096,48.7847874 L7.94675096,48.7847874 Z M20.2773343,51.516693 C19.5085942,51.7742477 18.7492404,51.9306178 17.99925,51.9858081 C17.2492597,52.0409984 16.5742785,51.9352186 15.9742862,51.6684655 C15.3742939,51.4017125 14.8868075,50.9326021 14.5118123,50.2611202 C14.1368171,49.5896384 13.9493223,48.6468185 13.9493223,47.4326321 L13.9493225,41.3077545 L11.7138044,41.3077545 L11.7138044,38.3936747 C11.7138044,38.3936747 11.9106597,38.3936748 12.3246627,38.3936748 C13.0552528,38.3936748 13.7071068,38.2185412 14.1671082,37.4907281 C14.3621839,37.1820797 14.3875589,36.8663577 14.4112308,36.0105593 L14.4112308,35 L16.7533859,35 L16.7533859,38.3936747 L19.5145098,38.3936747 L19.5145098,41.3077545 L16.7533859,41.3077545 L16.6773986,47.8465572 C16.6773986,48.2880795 16.7289597,48.6376128 16.8320834,48.8951674 C16.935207,49.1527221 17.1086397,49.3458852 17.3523866,49.4746626 C17.5961334,49.6034399 17.9148746,49.6678276 18.3086195,49.6678276 C18.7023644,49.6678276 19.1804761,49.6310346 19.7429689,49.5574476 L20.2773343,51.516693 Z M28.9035196,40.7822358 C28.7722713,40.7270455 28.6410249,40.671856 28.5097766,40.6166657 C28.3972781,40.5798722 28.2660317,40.5430792 28.1160336,40.5062857 C27.9660356,40.4694922 27.806665,40.4510957 27.6379172,40.4510957 C27.0941742,40.4510957 26.5879383,40.538479 26.1191943,40.7132482 C25.6504503,40.8880175 25.2473366,41.1225727 24.9098409,41.4169209 C24.5723452,41.7112691 24.3051652,42.0562032 24.1082927,42.4517336 C23.9114202,42.847264 23.8129855,43.2657841 23.8129855,43.7073064 L23.784861,51.8399779 L21.0567847,51.8399779 L21.0567847,38.3262802 L23.222371,38.3262802 L23.784861,39.7888155 C24.1598562,39.2553094 24.6520299,38.8275911 25.2613971,38.5056478 C25.8707643,38.1837044 26.6348055,38.0227352 27.5535437,38.0227352 C28.153536,38.0227352 28.8378919,38.1055194 29.606632,38.2710902 L28.9035196,40.7822358 Z M35.9828574,51.8754281 C35.00787,51.8754281 34.0938329,51.6960623 33.2407189,51.3373255 C32.3876049,50.9785886 31.6423131,50.4864826 31.0048213,49.8609926 C30.3673295,49.2355027 29.865781,48.4996433 29.5001607,47.6533922 C29.1345404,46.8071411 28.951733,45.9057133 28.951733,44.9490816 C28.951733,43.99245 29.1251657,43.0910221 29.4720362,42.2447711 C29.8189067,41.39852 30.2876437,40.6626605 30.8782611,40.0371706 C31.4688785,39.4116807 32.1579218,38.9195747 32.9454117,38.5608378 C33.7329016,38.2021009 34.5766281,38.0227352 35.4766165,38.0227352 C36.3953547,38.0227352 37.2437685,38.1791053 38.0218835,38.4918503 C38.7999985,38.8045952 39.4749797,39.2921021 40.0468474,39.9543856 C40.618715,40.616669 41.0640151,41.4583083 41.382761,42.4793286 C41.7015069,43.5003489 41.8608775,44.7191162 41.8608775,46.1356669 L31.8485563,46.1356669 C31.9798046,46.6139827 32.1860488,47.0600975 32.4672952,47.4740246 C32.7485416,47.8879518 33.0813448,48.2466833 33.4657149,48.5502299 C33.8500849,48.8537765 34.2813229,49.0883317 34.7594418,49.2539025 C35.2375606,49.4194734 35.7391092,49.5022576 36.2641024,49.5022576 C36.9765933,49.5022576 37.6375123,49.3734822 38.2468795,49.1159275 C38.8562467,48.8583728 39.3765447,48.5180378 39.8077891,48.0949123 L41.495259,49.7506126 C40.8390174,50.3944993 40.0374773,50.9096009 39.0906144,51.2959329 C38.1437516,51.682265 37.107843,51.8754281 35.9828574,51.8754281 L35.9828574,51.8754281 Z M35.4766165,40.4510957 C35.045372,40.4510957 34.6375709,40.5338799 34.2532008,40.6994507 C33.8688308,40.8650216 33.5125907,41.0949777 33.1844699,41.3893259 C32.8563491,41.6836741 32.575107,42.0332073 32.340735,42.4379361 C32.106363,42.8426649 31.9329303,43.2841805 31.8204318,43.7624964 L38.9359297,43.7624964 C38.8984302,43.3209741 38.7953081,42.8978549 38.6265602,42.4931261 C38.4578124,42.0883973 38.2234439,41.734265 37.9234478,41.4307184 C37.6234516,41.1271718 37.2718989,40.8880175 36.8687791,40.7132482 C36.4656593,40.538479 36.0016097,40.4510957 35.4766165,40.4510957 L35.4766165,40.4510957 Z M56.4695452,38.3262802 L56.4695452,51.8399779 L54.1633364,51.8399779 L53.7414689,50.0265627 C53.2727249,50.6336558 52.6727416,51.093568 51.941501,51.406313 C51.2102604,51.7190579 50.4696561,51.8754281 49.7196657,51.8754281 C48.7821778,51.8754281 47.9056397,51.6960623 47.0900252,51.3373255 C46.2744107,50.9785886 45.5619305,50.4864826 44.9525633,49.8609926 C44.3431962,49.2355027 43.8603971,48.4996433 43.5041517,47.6533922 C43.1479063,46.8071411 42.9697862,45.9057133 42.9697862,44.9490816 C42.9697862,43.99245 43.1479063,43.0910221 43.5041517,42.2447711 C43.8603971,41.39852 44.3431962,40.6626605 44.9525633,40.0371706 C45.5619305,39.4116807 46.2744107,38.9195747 47.0900252,38.5608378 C47.9056397,38.2021009 48.7821778,38.0227352 49.7196657,38.0227352 C50.4696561,38.0227352 51.191511,38.1653079 51.885252,38.4504578 C52.5789931,38.7356076 53.1977259,39.1817224 53.7414689,39.7888155 L54.1633364,38.3262802 L56.4695452,38.3262802 Z M49.7196657,49.5022576 C50.2634087,49.5022576 50.7790194,49.3826804 51.2665131,49.1435225 C51.7540068,48.9043646 52.1758701,48.5778269 52.5321155,48.1638998 C52.8883609,47.7499726 53.1696031,47.2670649 53.3758504,46.715162 C53.5820978,46.1632591 53.6852199,45.5745715 53.6852199,44.9490816 C53.6852199,44.3235917 53.5820978,43.7349041 53.3758504,43.1830013 C53.1696031,42.6310984 52.8883609,42.1481906 52.5321155,41.7342634 C52.1758701,41.3203363 51.7540068,40.9937987 51.2665131,40.7546407 C50.7790194,40.5154828 50.2634087,40.3959057 49.7196657,40.3959057 C49.1759227,40.3959057 48.6603121,40.5154828 48.1728183,40.7546407 C47.6853246,40.9937987 47.2634614,41.3203363 46.9072159,41.7342634 C46.5509705,42.1481906 46.2697283,42.6310984 46.063481,43.1830013 C45.8572336,43.7349041 45.7541115,44.3235917 45.7541115,44.9490816 C45.7541115,45.5745715 45.8572336,46.1632591 46.063481,46.715162 C46.2697283,47.2670649 46.5509705,47.7499726 46.9072159,48.1638998 C47.2634614,48.5778269 47.6853246,48.9043646 48.1728183,49.1435225 C48.6603121,49.3826804 49.1759227,49.5022576 49.7196657,49.5022576 L49.7196657,49.5022576 Z M61.1783897,51.8399779 L58.4503134,51.8399779 L58.4503134,38.3262802 L60.6158997,38.3262802 L61.1783897,39.4576755 C61.5158853,39.0713435 61.9189991,38.7356076 62.3877431,38.4504578 C62.856487,38.1653079 63.4283461,38.0227352 64.1033374,38.0227352 C64.3658341,38.0227352 64.6611383,38.054929 64.9892591,38.1193177 C65.3173799,38.1837064 65.6548705,38.2940853 66.001741,38.4504578 C66.3486116,38.6068302 66.6814148,38.8183898 67.0001607,39.0851429 C67.3189066,39.351896 67.590774,39.6968301 67.8157711,40.1199556 C68.134517,39.549656 68.6173161,39.05755 69.2641828,38.6436228 C69.9110495,38.2296956 70.6000928,38.0227352 71.3313334,38.0227352 C71.8188271,38.0227352 72.3344377,38.0963211 72.8781807,38.2434952 C73.4219238,38.3906693 73.9281597,38.6666166 74.3969036,39.0713454 C74.8656476,39.4760742 75.2500119,40.037167 75.550008,40.7546407 C75.8500042,41.4721145 76,42.4011371 76,43.5417363 L76,51.8399779 L73.4406707,51.8399779 L73.4406707,43.5141413 C73.4406707,42.373542 73.2016149,41.577894 72.723496,41.1271733 C72.2453772,40.6764526 71.6125823,40.4510957 70.8250924,40.4510957 C70.2251001,40.4510957 69.7001147,40.6994482 69.2501205,41.1961608 C68.8001263,41.6928734 68.5751326,42.4747241 68.5751326,43.5417363 L68.5751326,51.8399779 L66.0158033,51.8399779 L66.0158033,43.5141413 C66.0158033,42.373542 65.7767474,41.577894 65.2986286,41.1271733 C64.8205097,40.6764526 64.1877149,40.4510957 63.400225,40.4510957 C62.8377322,40.4510957 62.3455584,40.6626553 61.9236889,41.0857808 C61.5018193,41.5089064 61.2533887,42.1711799 61.1783897,43.0726212 L61.1783897,51.8399779 Z" id="Stream-Word" fill="#FFFFFF"></path>
        <path d="M47.1990183,10.6453986 L66.3915359,9.28353351 C67.658385,9.19365281 68.4560308,10.6227409 67.715349,11.6553935 L54.2893861,30.3745864 C54.0078641,30.7671205 53.5545507,31 53.0717059,31 L22.9639883,31 C22.481893,31 22.0291792,30.7678707 21.7473573,30.3760869 L8.28571701,11.656894 C7.54323636,10.6243914 8.34088214,9.19335271 9.60878064,9.28353351 L28.7428352,10.6455487 L36.9152191,1.50007534 C37.5140905,0.829946483 38.5634272,0.833847815 39.1573517,1.50862826 L47.1990183,10.6453986 Z M51,28 L39,23 L39,28 L51,28 Z M37,28 L37,23 L25,28 L37,28 Z M36,22.2546766 L23.3248909,27 L14,14 L36,22.2546766 Z M40,22.2546766 L52.6751091,27 L62,14 L40,22.2546766 Z M37,21 L37,5 L27,16.998775 L37,21 Z M39,21 L39,5 L49,16.9982771 L39,21 Z M23.5437733,16 L26,12.9502931 L14,12 L23.5437733,16 Z M52.4560729,16 L50,12.9502931 L62,12 L52.4560729,16 Z" id="STREAM-MARK" fill="#2F7DEB"></path>
    </g>
</svg>